<?xml version="1.0" encoding="utf-8"?>
<!-- Generator: Adobe Illustrator 15.0.0, SVG Export Plug-In . SVG Version: 6.00 Build 0)  -->
<!DOCTYPE svg PUBLIC "-//W3C//DTD SVG 1.1//EN" "http://www.w3.org/Graphics/SVG/1.1/DTD/svg11.dtd">
<svg version="1.1" id="图层_1" xmlns="http://www.w3.org/2000/svg" xmlns:xlink="http://www.w3.org/1999/xlink" x="0px" y="0px"
	 width="600px" height="600px" viewBox="0 0 600 600" enable-background="new 0 0 600 600" xml:space="preserve">
<g>
	<polygon fill="#600B0B" points="368,29 357.625,47.625 366.75,80.863 381.75,79 374.875,47.1 386,29 	"/>
	<polygon fill="#870E0E" points="357.625,47.5 368,29 386,29 374.875,47.1 	"/>
	<polygon fill="#EF1818" points="391.5,80.063 395.5,39.25 386,29 368,29 378.875,41.625 374.625,81 	"/>
	<polygon fill="#EA3F3F" points="368,29 386,29 395.5,39.25 378.875,41.625 	"/>
	<path fill="#EF1818" d="M83.306,490.248c-9.001-47.898,8.95-70.698,27.157-85.218c31.058-24.774,84.488-18.495,101.756-54.187
		c14.058-29.057,4.166-46.445-0.495-63.842l206.979-55.46c41.117,105.767,84.229,233.195-38.496,290.193
		C200.797,605.061,98.578,571.518,83.306,490.248z"/>
	<path fill="#FFFFFF" d="M83.306,490.248c-9.001-47.898,8.95-70.698,27.157-85.218c9.431-7.523,20.924-12.195,32.838-16.056
		c0,0,34.75,31.191,47.369,78.285c15.572,58.117-0.044,102.477-0.044,102.477c-7.157-0.339-13.971-1.043-20.44-2.093
		C120.304,559.55,90.94,530.883,83.306,490.248z"/>
	<path fill="#FFFFFF" d="M361.223,413.385c30.542-59.374,96.57-53.376,96.57-53.376c10.328,66.127-2.942,126.899-77.624,161.585
		C380.169,521.594,330.349,473.405,361.223,413.385z"/>
	<path opacity="0.2" d="M426.897,252.941c0,0-5.455-14.355-8.194-21.399l-206.979,55.46c1.927,7.188,4.741,14.376,6.395,22.384
		c94.273-5.85,161.085-40.466,187.556-4.021c38.357,52.81,26.163,171.83-45.204,204.977
		c-109.131,50.685-189.696,58.124-239.511,37.888c46.535,32.649,136.078,35.225,260.164-26.738
		C499.439,462.409,459.729,342.361,426.897,252.941z"/>
	<path fill="#FFFFFF" d="M449.309,195.892c1.026,12.226-4.239,25.996-15.324,31.251c-60.986,28.913-158.929,54.666-232.09,63.517
		c-18.363,2.221-31.364-3.41-36.531-14.539c-16.619-35.796-26.942-75.765-28.229-105.544c-0.753-17.463,13.051-32.56,24.482-37.014
		c72.376-28.194,169.676-53.482,227.851-58.092c12.229-0.97,28.345,8.865,32.943,20.24
		C437.563,133.178,446.688,164.65,449.309,195.892z"/>
	<path opacity="0.15" d="M418.969,207.529c-55.267,44.967-184.069,69.387-219.527,73.973c-18.345,2.373-31.365-3.409-36.531-14.538
		c-7.496-16.146-13.705-33.138-18.389-49.662c4.868,19.335,11.954,39.673,20.842,58.818c5.167,11.129,18.168,16.76,36.531,14.539
		c73.161-8.851,171.104-34.604,232.09-63.517c11.085-5.255,16.351-19.025,15.324-31.251c-1.378-16.432-6.873-46.029-13.35-63.192
		C441.084,146.281,445.539,185.91,418.969,207.529z"/>
	<g>
		<g>
			<path fill="#E3781D" d="M432.804,350.135c1.916,7.153,3.833,14.306,5.749,21.458c0.5,1.867,3.395,1.074,2.893-0.797
				c-1.916-7.153-3.833-14.306-5.749-21.458C435.196,347.471,432.303,348.264,432.804,350.135L432.804,350.135z"/>
		</g>
	</g>
	<g>
		<g>
			<path fill="#E3781D" d="M389.085,365.41c2.533,10.374,5.066,20.748,7.6,31.121c0.459,1.879,3.352,1.082,2.893-0.797
				c-2.533-10.374-5.066-20.748-7.6-31.121C391.519,362.734,388.626,363.531,389.085,365.41L389.085,365.41z"/>
		</g>
	</g>
	<g>
		<g>
			<path fill="#E3781D" d="M340.105,455.941c7.301-1.242,14.601-2.485,21.9-3.728c1.904-0.324,1.095-3.215-0.797-2.893
				c-7.301,1.242-14.601,2.485-21.9,3.728C337.404,453.373,338.214,456.264,340.105,455.941L340.105,455.941z"/>
		</g>
	</g>
	<g>
		<g>
			<path fill="#E3781D" d="M353.478,404.57c6.405,3.717,12.811,7.434,19.216,11.15c1.677,0.974,3.186-1.62,1.514-2.59
				c-6.405-3.717-12.811-7.434-19.216-11.15C353.314,401.007,351.805,403.601,353.478,404.57L353.478,404.57z"/>
		</g>
	</g>
	<g>
		<g>
			<path fill="#E3781D" d="M351.866,506.901c9.064-3.561,18.128-7.122,27.191-10.683c1.779-0.699,1.006-3.601-0.797-2.893
				c-9.064,3.561-18.128,7.122-27.191,10.683C349.29,504.708,350.063,507.609,351.866,506.901L351.866,506.901z"/>
		</g>
	</g>
	<g>
		<g>
			<path fill="#E3781D" d="M165.186,392.321c-6.722,3.105-13.444,6.212-20.166,9.318c-1.755,0.811-0.23,3.396,1.514,2.59
				c6.722-3.105,13.444-6.212,20.166-9.318C168.454,394.101,166.929,391.516,165.186,392.321L165.186,392.321z"/>
		</g>
	</g>
	<g>
		<g>
			<path fill="#E3781D" d="M185.251,419.588c-5.064,5.745-10.128,11.489-15.192,17.234c-1.274,1.445,0.839,3.575,2.121,2.121
				c5.064-5.745,10.128-11.489,15.192-17.234C188.646,420.264,186.533,418.134,185.251,419.588L185.251,419.588z"/>
		</g>
	</g>
	<g>
		<g>
			<path fill="#E3781D" d="M204.713,516.163c-7.279-1.36-14.559-2.72-21.838-4.08c-1.891-0.354-2.698,2.538-0.798,2.893
				c7.279,1.36,14.559,2.72,21.838,4.08C205.806,519.409,206.613,516.518,204.713,516.163L204.713,516.163z"/>
		</g>
	</g>
	<g>
		<g>
			<path fill="#E3781D" d="M201.306,469.143c-8.843,0.785-17.686,1.569-26.529,2.354c-1.911,0.17-1.928,3.171,0,3
				c8.843-0.785,17.686-1.569,26.529-2.354C203.217,471.973,203.233,468.972,201.306,469.143L201.306,469.143z"/>
		</g>
	</g>
	<g>
		<g>
			<path fill="#E3781D" d="M209.581,549.319c-9.574,1.775-19.148,3.55-28.723,5.325c-1.9,0.353-1.093,3.243,0.798,2.893
				c9.574-1.775,19.148-3.55,28.723-5.325C212.279,551.859,211.472,548.969,209.581,549.319L209.581,549.319z"/>
		</g>
	</g>
</g>
</svg>
