<?xml version="1.0" encoding="utf-8"?>
<!-- Generator: Adobe Illustrator 15.0.0, SVG Export Plug-In . SVG Version: 6.00 Build 0)  -->
<!DOCTYPE svg PUBLIC "-//W3C//DTD SVG 1.1//EN" "http://www.w3.org/Graphics/SVG/1.1/DTD/svg11.dtd">
<svg version="1.1" id="图层_1" xmlns="http://www.w3.org/2000/svg" xmlns:xlink="http://www.w3.org/1999/xlink" x="0px" y="0px"
	 width="600px" height="600px" viewBox="0 0 600 600" enable-background="new 0 0 600 600" xml:space="preserve">
<g>
	
		<ellipse transform="matrix(0.9999 0.017 -0.017 0.9999 9.0789 -6.016)" opacity="0.3" cx="357.536" cy="529.711" rx="119.739" ry="24.782"/>
	<g>
		<circle fill="#BDCCD4" cx="415.695" cy="378.991" r="26.5"/>
		<path opacity="0.6" fill="#4385BF" d="M442.195,378.991c0,14.636-11.865,26.5-26.5,26.5c-10.959,0-20.363-6.652-24.398-16.139
			c0,0,4.754,4.318,23.537,1.814c22.5-3,25.012-23.1,25.012-23.1C441.354,371.398,442.195,375.097,442.195,378.991z"/>
	</g>
	<ellipse fill="#FFFFFF" cx="291.282" cy="259.142" rx="100.619" ry="90.938"/>
	<ellipse fill="#FFFFFF" cx="291.905" cy="428.354" rx="135.051" ry="120.626"/>
	<path opacity="0.4" fill="#BDCCD4" d="M426.955,428.354c0,66.62-60.464,120.626-135.05,120.626
		c-74.587,0-135.051-54.006-135.051-120.626c0,0,25.475,106.243,134.427,105.313C369.43,533,412.732,471.486,417.5,426.25
		c2.832-26.868-3.041-48.644-3.041-48.644C422.479,393.032,426.955,410.226,426.955,428.354z"/>
	<path fill="none" stroke="#014E6A" stroke-width="2" stroke-miterlimit="10" d="M369.392,252.587
		c1.253,35.296-28.284,64.991-65.972,66.329c-37.688,1.338-69.255-26.188-70.508-61.484"/>
	<path fill="#FFAC1E" d="M421.045,255.412l-115.424-13.496c0,0-6.871,3.114-6.871,13.496s6.412,13.481,6.412,13.481L421.045,255.412
		z"/>
	<path fill="#EB4325" d="M219.293,60.887l13.299,126.644c0,0,8.361,5.011,28.417-1.685c20.058-6.695,23.854-15.245,23.854-15.245
		L219.293,60.887z"/>
	<path fill="#C72E23" d="M218.968,61.437l42.041,124.41c19.408-6.138,23.854-15.245,23.854-15.245L218.968,61.437z"/>
	<circle fill="#014E6A" cx="259.931" cy="232.152" r="6.644"/>
	<circle fill="#014E6A" cx="337.166" cy="227.169" r="6.644"/>
	<g>
		<circle fill="#F05426" cx="218.969" cy="61.437" r="12.457"/>
		<path fill="#C72E23" d="M227.442,52.306c2.093,1.94,3.533,4.605,3.896,7.661c0.811,6.832-4.068,13.028-10.901,13.839
			c-3.843,0.457-7.484-0.887-10.08-3.366"/>
	</g>
	<circle fill="#014E6A" cx="307.04" cy="366.69" r="4.983"/>
	<circle fill="#014E6A" cx="310.777" cy="390.359" r="5.605"/>
	<polygon fill="#378C31" points="202.25,319.363 192.004,347.181 383.667,338.001 369.43,322.616 	"/>
	<polygon fill="#50AD2D" points="212.827,315.937 247.296,470.893 301.961,439.514 229.184,314.768 	"/>
	<polygon fill="#50AD2D" points="253.595,488.881 245.461,489.377 250.173,470.463 	"/>
	<polygon fill="#50AD2D" points="266.838,479.728 260.674,481.102 255.884,462.878 	"/>
	<polygon fill="#50AD2D" points="280.75,479 273.25,481.625 270.554,458.826 	"/>
	<polygon fill="#50AD2D" points="291.852,466.788 283.777,470.733 283.216,449.998 	"/>
	<polygon fill="#50AD2D" points="317.057,448.025 314.574,455.069 300.754,441.913 	"/>
	<polygon fill="#50AD2D" points="310.084,456.436 304.693,464.835 291.897,448.022 	"/>
	<g>
		<circle fill="#FFFFFF" cx="152.695" cy="393.991" r="30.209"/>
		<path opacity="0.4" fill="#BDCCD4" d="M182.904,393.991c0,16.684-13.525,30.209-30.209,30.209
			c-12.492,0-23.213-7.584-27.812-18.397c0,0,6.617,12.697,27.813,8.53c29.417-5.783,27.53-32.794,27.53-32.794
			C181.946,385.336,182.904,389.552,182.904,393.991z"/>
	</g>
</g>
</svg>
