<?xml version="1.0" encoding="utf-8"?>
<!-- Generator: Adobe Illustrator 15.0.0, SVG Export Plug-In . SVG Version: 6.00 Build 0)  -->
<!DOCTYPE svg PUBLIC "-//W3C//DTD SVG 1.1//EN" "http://www.w3.org/Graphics/SVG/1.1/DTD/svg11.dtd">
<svg version="1.1" id="图层_1" xmlns="http://www.w3.org/2000/svg" xmlns:xlink="http://www.w3.org/1999/xlink" x="0px" y="0px"
	 width="600px" height="600px" viewBox="0 0 600 600" enable-background="new 0 0 600 600" xml:space="preserve">
<g>
	<path opacity="0.3" d="M201,450.957c44.333,0,192.665,17.378,192.665,17.378l178.579,0.165l-46.042-24.698
		c0,0-20.869-9.135-65.202-17.802v25L201,450.957z"/>
	<polygon fill="#FFFFFF" points="179.334,255 332,105 230.333,105 54,255 	"/>
	<rect x="73" y="264" fill="#E3781D" width="128" height="187"/>
	<polygon opacity="0.3" points="201,264 201,300.5 73,300.333 73,264 	"/>
	<polygon fill="#ABB8D4" points="332,105 332,118.75 179,271 179,255 	"/>
	<rect x="54" y="255" fill="#E6E6E6" width="125" height="16"/>
	<polygon fill="#C72E23" points="332,119 332,134 186.125,279 179,271 	"/>
	<polygon fill="#DD5949" points="186.125,279 60.667,279 54,271 179,271 	"/>
	<polygon fill="#ABB8D4" points="332,118.75 485,271.875 485,258.167 332,105 	"/>
	<polygon fill="#C72E23" points="332,119 484.844,271.875 477.5,279 332,134 	"/>
	<polygon fill="#CC551D" points="201,264.215 332,134 461,262.557 461,451 201,451 	"/>
	<rect x="271" y="279" fill="#FCEE21" width="123" height="123"/>
	<g>
		<polygon fill="#96C94A" points="357.438,293.054 336.772,402 386.2,402 		"/>
		<circle fill="#DD5949" cx="361.299" cy="315.155" r="2.968"/>
		<circle fill="#FFFFFF" cx="351.963" cy="329.316" r="4.151"/>
		<g>
			<g>
				<path fill="#E3EDE6" d="M343.265,360.991c7.518,6.98,18.792,0.882,18.784-8.847c-0.427,0.177-0.854,0.354-1.28,0.53
					c2.452,1.955,7.352,4.857,10.511,2.689c3.312-2.273,3.517-5.857,1.547-9.237c-0.486-0.835-1.783-0.08-1.295,0.758
					c1.446,2.481,2.035,5.99-1.841,7.503c-2.439,0.953-5.98-1.274-7.861-2.773c-0.487-0.389-1.281-0.18-1.28,0.53
					c0.007,8.315-9.695,13.848-16.224,7.786C343.617,359.273,342.555,360.332,343.265,360.991L343.265,360.991z"/>
			</g>
		</g>
		<g>
			<g>
				<path fill="#E3EDE6" d="M339.791,374.954c0.063,6.358,2.452,13.467,8.843,15.844c6.536,2.432,14.237-1.228,18.134-6.598
					c-0.594-0.015-1.187-0.029-1.779-0.044c1.739,5.089,5.181,10.224,10.98,10.458c4.407,0.178,7.831-3.55,8.673-7.618
					c0.203-0.983-1.776-0.755-1.961,0.135c-1.033,4.993-6.167,7.727-10.675,4.481c-2.461-1.772-4.129-5.175-5.086-7.974
					c-0.243-0.712-1.408-0.554-1.779-0.044c-4.034,5.563-11.978,8.606-18.095,4.494c-3.918-2.634-5.25-8.826-5.294-13.27
					C341.741,373.778,339.782,374.053,339.791,374.954L339.791,374.954z"/>
			</g>
		</g>
		<circle fill="#E3781D" cx="342.006" cy="375.395" r="4.059"/>
		<circle fill="#DD5949" cx="366.047" cy="382.817" r="2.968"/>
		<circle fill="#378C31" cx="361.496" cy="352.15" r="3.561"/>
	</g>
	<polygon fill="#DD5949" points="477.5,279 461,279 323.16,142.787 332,134 	"/>
	<rect x="384" y="279" fill="#CC781D" width="10" height="123"/>
	<rect x="328" y="279" fill="#736357" width="12" height="123"/>
	<rect x="322" y="279" fill="#534741" width="6" height="56"/>
	<rect x="322" y="347" fill="#534741" width="6" height="55"/>
	<rect x="271" y="335" fill="#736357" width="123" height="12"/>
	<polygon opacity="0.5" points="201,264.215 332,134 349.139,151.08 201,300.5 	"/>
</g>
</svg>
