<?xml version="1.0" encoding="utf-8"?>
<!-- Generator: Adobe Illustrator 15.0.0, SVG Export Plug-In . SVG Version: 6.00 Build 0)  -->
<!DOCTYPE svg PUBLIC "-//W3C//DTD SVG 1.1//EN" "http://www.w3.org/Graphics/SVG/1.1/DTD/svg11.dtd">
<svg version="1.1" id="图层_1" xmlns="http://www.w3.org/2000/svg" xmlns:xlink="http://www.w3.org/1999/xlink" x="0px" y="0px"
	 width="600px" height="600px" viewBox="0 0 600 600" enable-background="new 0 0 600 600" xml:space="preserve">
<g>
	<ellipse opacity="0.4" cx="278.5" cy="524.261" rx="163.5" ry="22.5"/>
	<path fill="#753221" d="M192.947,428.025C189.95,433.206,239.856,525,239.856,525h14.775c0,0-35.303-61.988-30.737-89.61
		c2.786-16.858,25.939-20.556,31.074-49.398c0.916-5.146-42.61-24.415-48.468-22.142
		C202.644,365.344,214.109,391.477,192.947,428.025z"/>
	<path fill="#753221" d="M341.253,367.669C333.748,397.221,358.486,525,358.486,525h11.456c0,0-17.182-124.984,6.175-181.405
		C379.616,335.141,343.503,358.8,341.253,367.669z"/>
	<g>
		<path fill="#BA7532" stroke="#BA7532" stroke-width="4" stroke-miterlimit="10" d="M276.148,164.624
			c-30.021-9.494-46.658-41.528-37.164-71.547c0,0,1.01-3.188,3.709-2.335c2.771,0.878,1.692,3.853,1.692,3.853
			c-8.591,27.163,6.466,56.144,33.629,64.734L276.148,164.624z"/>
		<path fill="#BA7532" stroke="#BA7532" stroke-width="4" stroke-miterlimit="10" d="M363.252,148.401
			c24.736-19.48,28.997-55.324,9.519-80.061c0,0-2.072-2.626-4.296-0.873c-2.282,1.795-0.224,4.199-0.224,4.199
			c17.628,22.382,13.77,54.813-8.612,72.44L363.252,148.401z"/>
		<path fill="#BA7532" d="M413.066,38.175c10.509,61.665-30.963,120.175-92.627,130.683c-61.661,10.51-120.17-30.958-130.68-92.625
			c0,0-1.118-6.547,4.435-7.495c5.688-0.968,6.495,5.268,6.495,5.268c9.509,55.794,62.443,93.312,118.235,83.803
			c55.792-9.509,93.312-62.442,83.803-118.237c0,0-1.021-5.562,4.291-6.468C412.056,32.247,413.066,38.175,413.066,38.175z"/>
		<path fill="#E8E8F5" d="M318.925,157.81c-95.236,17.472-130.283-88.124-124.73-89.071c5.688-0.968,6.495,5.268,6.495,5.268
			C210.198,129.801,263.133,167.318,318.925,157.81c55.792-9.509,93.312-62.442,83.803-118.237c0,0-1.021-5.562,4.291-6.468
			C412.056,32.247,416,140,318.925,157.81z"/>
	</g>
	<path fill="#CC781D" d="M256.848,186.782c-9.925,0.552,11.698,19.287,23.914,19.361c21.887,0.137,44.455,5.728,48.974,30.258
		c6.522,35.396-26.473,57.421-80.675,56.603c-22.088-0.334-42.75-14.317-67.702-6.137c-13.222,4.336-28.362,20.998-28.636,44.589
		c-0.283,24.597,12.161,58.906-33.599,87.134c-6.175,3.807-4.124,19.95-4.124,37.907c0,16.663,0,68.503,0,68.503h15.225
		c0.887-53,1.309-86.91,14.728-93.431c38.452-18.682,59.035-43.853,62.586-66.441c1.229-7.819,21.07,31.104,94.497,21.821
		c4.502-0.568,14.318,138.77,14.318,138.77l11.799,0.063c-1.162-63.855,11.608-151.204,18.063-155.066
		c58.089-34.771,59.83-101.618,44.59-139.896c-8.795-22.089-19.228-44.586-58.226-67.359
		C295.659,141.9,281.311,185.419,256.848,186.782z"/>
	<path fill="#C45C1D" d="M342.808,173.578c-8.661,6.062-19.978,4.829-25.279-2.748c-5.3-7.578-2.581-18.635,6.083-24.694
		c8.66-6.059,35.91-4.686,35.91-4.686S351.473,167.521,342.808,173.578z"/>
	<path opacity="0.4" d="M342.808,173.578c-8.661,6.062-19.978,4.829-25.279-2.748l41.993-29.38
		C359.521,141.45,351.473,167.521,342.808,173.578z"/>
	<g>
		<path fill="#CC781D" d="M179.237,288.486c-0.021,10.197-8.308,18.447-18.506,18.422c-10.195-0.02-18.444-8.301-18.421-18.499
			c0.021-10.198,8.305-18.446,18.501-18.421C171.007,270.008,179.259,278.29,179.237,288.486z"/>
		<path opacity="0.3" d="M174.865,276.521c2.734,3.228,4.379,7.406,4.372,11.965c-0.021,10.197-8.308,18.447-18.506,18.422
			c-5.733-0.01-10.853-2.635-14.231-6.744c0,0,5.838,4.127,14.273,1.836C181.333,296.417,174.865,276.521,174.865,276.521z"/>
	</g>
	<circle fill="#FCEE21" cx="302.557" cy="177.536" r="4.909"/>
</g>
</svg>
