<?xml version="1.0" encoding="utf-8"?>
<!-- Generator: Adobe Illustrator 15.0.0, SVG Export Plug-In . SVG Version: 6.00 Build 0)  -->
<!DOCTYPE svg PUBLIC "-//W3C//DTD SVG 1.1//EN" "http://www.w3.org/Graphics/SVG/1.1/DTD/svg11.dtd">
<svg version="1.1" id="图层_1" xmlns="http://www.w3.org/2000/svg" xmlns:xlink="http://www.w3.org/1999/xlink" x="0px" y="0px"
	 width="355px" height="339px" viewBox="0 0 355 339" enable-background="new 0 0 355 339" xml:space="preserve">
<g>
	<polygon fill="#009BCB" points="48.095,247 178.027,247 113.061,135.393 	"/>
	<polygon fill="#009BCB" points="155.038,300 178,300 178,260.734 	"/>
	<polyline fill="none" stroke="#44BDD2" stroke-width="2" stroke-miterlimit="10" points="178,24 48.367,24 178.014,246.752 	"/>
	<polygon fill="#44BDD2" points="178.027,247 307.958,247 242.993,135.393 	"/>
	<polygon fill="#44BDD2" points="113.034,135.316 178,246.924 178,135.316 178,23.708 	"/>
	<polygon fill="#009BCB" points="242.966,135.316 178,246.924 178,135.316 178,23.708 	"/>
	<polyline fill="none" stroke="#009BCB" stroke-width="2" stroke-miterlimit="10" points="178,24 307.96,24 178.014,247.216 	"/>
	<path fill="#009BCB" d="M47.96,261.279h31.58v5.572H66.803v32.92h-6.257v-32.92H47.96V261.279z"/>
	<path fill="#009BCB" d="M81.709,299.896l8.854-29.915c0.739-2.487,1.715-4.466,2.926-5.927c1.631-2.001,3.836-3.003,6.608-3.003
		c2.758,0,4.886,0.782,6.382,2.346c1.178,1.246,2.069,2.842,2.676,4.792l9.633,31.732h-6.279l-3.709-11.857H91.773l-3.959,11.857
		L81.709,299.896z M93.084,282.491h14.127l-3.709-12.386c-0.218-0.723-0.631-1.438-1.236-2.145
		c-0.536-0.621-1.219-0.932-2.043-0.932c-0.908,0-1.682,0.395-2.32,1.186c-0.487,0.572-0.833,1.202-1.034,1.891L93.084,282.491z"/>
	<path fill="#009BCB" d="M120.982,261.279h31.581v5.572h-12.739v32.92h-6.255v-32.92h-12.587V261.279z"/>
	<path fill="#009BCB" d="M194.006,261.279h31.58v5.572H212.85v32.92h-6.258v-32.92h-12.586V261.279z"/>
	<path fill="#009BCB" d="M234.264,261.429v28.934c0,1.596,0.269,2.647,0.807,3.151c0.536,0.505,1.21,0.756,2.017,0.756h14.907
		c2.254,0,3.381-1.185,3.381-3.556v-29.285l6.256-0.025v29.06c0,3.125-0.85,5.481-2.549,7.063c-1.664,1.546-3.773,2.32-6.33,2.32
		h-15.914c-2.793,0-4.945-0.74-6.46-2.22c-1.58-1.53-2.37-3.465-2.37-5.802v-30.396H234.264z"/>
	<path fill="#009BCB" d="M263.978,266.979v-5.575h25.45c1.967,0,3.564,0.613,4.793,1.842c1.109,1.127,1.665,2.59,1.665,4.389
		c0,1.632-0.479,3.179-1.438,4.641c-0.874,1.312-2.388,2.843-4.538,4.592l-16.851,13.622c-0.287,0.219-0.605,0.629-0.959,1.234
		c-0.151,0.253-0.228,0.522-0.228,0.809c0,1.093,1.052,1.639,3.153,1.639h20.809v5.575h-24.265c-2.606,0-4.606-0.716-6.003-2.145
		c-1.076-1.11-1.614-2.489-1.614-4.138c0-0.974,0.252-1.949,0.756-2.927c0.624-1.193,1.353-2.133,2.194-2.823l20.785-16.977
		c0.756-0.621,1.136-1.319,1.136-2.092c0-0.456-0.253-0.843-0.758-1.162c-0.521-0.334-1.235-0.504-2.143-0.504H263.978z"/>
	<path fill="#009BCB" d="M298.936,261.227h6.258v38.545h-6.258V261.227z"/>
</g>
</svg>
